<svg width="18" height="18" viewBox="0 0 18 18" fill="none" xmlns="http://www.w3.org/2000/svg">
<path d="M8.9959 4.50781C11.5513 4.50781 13.6124 6.51172 13.6124 8.9961C13.6124 11.4805 11.5513 13.4844 8.9959 13.4844C6.44055 13.4844 4.37939 11.4805 4.37939 8.9961C4.37939 6.51172 6.44055 4.50781 8.9959 4.50781ZM8.9959 11.9141C10.6472 11.9141 11.9972 10.6055 11.9972 8.9961C11.9972 7.38672 10.6513 6.07813 8.9959 6.07813C7.34055 6.07813 5.99457 7.38672 5.99457 8.9961C5.99457 10.6055 7.34457 11.9141 8.9959 11.9141ZM3.11377 4.32422C3.11377 4.90625 3.59591 5.3711 4.19055 5.3711C4.78921 5.3711 5.26734 4.90235 5.26734 4.32422C5.26734 3.74609 4.78519 3.27734 4.19055 3.27734C3.59591 3.27734 3.11377 3.74609 3.11377 4.32422ZM0.056179 5.38672C0.124483 3.98438 0.453947 2.74219 1.51064 1.71875C2.56332 0.695313 3.841 0.375 5.28341 0.304688C6.77001 0.222656 11.2258 0.222656 12.7124 0.304688C14.1508 0.371094 15.4285 0.691406 16.4852 1.71484C17.5419 2.73828 17.8673 3.98047 17.9396 5.38281C18.024 6.82813 18.024 11.1602 17.9396 12.6055C17.8713 14.0078 17.5419 15.25 16.4852 16.2734C15.4285 17.2969 14.1548 17.6172 12.7124 17.6875C11.2258 17.7695 6.77001 17.7695 5.28341 17.6875C3.841 17.6211 2.56332 17.3008 1.51064 16.2734C0.457966 15.25 0.1285 14.0078 0.056179 12.6055C-0.0281963 11.1602 -0.0281963 6.83203 0.056179 5.38672ZM1.97671 14.1563C2.29011 14.9219 2.8968 15.5117 3.68832 15.8203C4.87359 16.2773 7.68608 16.1719 8.9959 16.1719C10.3057 16.1719 13.1222 16.2734 14.3035 15.8203C15.091 15.5156 15.6977 14.9258 16.0151 14.1563C16.4852 13.0039 16.3767 10.2695 16.3767 8.9961C16.3767 7.72266 16.4812 4.98438 16.0151 3.83594C15.7017 3.07031 15.095 2.48047 14.3035 2.17188C13.1182 1.71484 10.3057 1.82031 8.9959 1.82031C7.68608 1.82031 4.86957 1.71875 3.68832 2.17188C2.90082 2.47656 2.29412 3.06641 1.97671 3.83594C1.50663 4.98828 1.61511 7.72266 1.61511 8.9961C1.61511 10.2695 1.50663 13.0078 1.97671 14.1563Z" fill="white"/>
</svg>
